<svg xmlns="http://www.w3.org/2000/svg" width="113.743" height="50.65" viewBox="0 0 113.743 50.65"><defs><style>.a{fill-rule:evenodd;}</style></defs><g transform="translate(-7.659 -8.659)"><path class="a" d="M49.864,20.658l-.8,1.614c-.132.209-.313.538-.555.994a6.412,6.412,0,0,1-.664,1.049,4.5,4.5,0,0,1-1.032,1.17.956.956,0,0,0-.555.851l-.977.714-1.12.857c-.45.231-.664.505-.637.824l-.593.093a2.989,2.989,0,0,0-.752.6c-.275.472-.577.719-.9.741a.4.4,0,0,0-.22.4c-.055.17-.22.3-.505.4-.247-.016-.785.308-1.625.977a.978.978,0,0,1-.478.318q-.338.173-.923.544a3.416,3.416,0,0,0-.923.829,1.7,1.7,0,0,1-.7.428.437.437,0,0,1-.593.093q-.173-.058-.2.033a.814.814,0,0,1-.516.3,2.278,2.278,0,0,0-.577.192,1.364,1.364,0,0,0-.725.8.369.369,0,0,1-.165.225,3.524,3.524,0,0,1-.725.8l-.033-.478a.738.738,0,0,0-.566.005,1.968,1.968,0,0,0-.533.2,1.371,1.371,0,0,1-.62.176l-.28.286c-.038.115-.077.242-.121.384s-.159.214-.351.214c-.055-.016-.121.088-.192.313a.451.451,0,0,1-.335.456,2.907,2.907,0,0,1-.522.022,1.785,1.785,0,0,1-.494-.066l-.818-.077a.666.666,0,0,0-.472.6.306.306,0,0,1,.242-.016.308.308,0,0,0,.242-.016q-.025.082.016.1a.132.132,0,0,0,.044.011l-.56.291-.165.511L24.364,40l-.478.313a1.389,1.389,0,0,1-.983.434c-.357-.055-.61.148-.752.6q-.189.593-.642.544a4.23,4.23,0,0,0-.115.944.99.99,0,0,1-.483.923L20.163,45.2a5.46,5.46,0,0,0-.577,1.5,5.108,5.108,0,0,1-.445.8,1.354,1.354,0,0,1-.071.961c-.148.357-.247.62-.3.791l-.522,1.329L17.9,51.962a2.512,2.512,0,0,1-.132.708,2.7,2.7,0,0,1-.329.736l-.357.824A4.351,4.351,0,0,1,17.1,56.2l.038.763.214,1.378-.253.2-.62-.1c-.055-.016-.082-.044-.071-.071a.132.132,0,0,0,.011-.044,3.415,3.415,0,0,1-2.2-2.482,13.045,13.045,0,0,1-.522-3.63l.2-2.372.686-3.9a15.181,15.181,0,0,1,.516-1.894.979.979,0,0,0-.077-.631.814.814,0,0,0-.582-.231,4.663,4.663,0,0,1-1.581-.038,3.3,3.3,0,0,0-.664-.121.83.83,0,0,1-.61-.291l-.34-.11-.253-.082a5.753,5.753,0,0,1-1.5-.857L9.2,41.4l-.253-.082a.925.925,0,0,1-.686-.78l-.016-.176a1.641,1.641,0,0,1-.582-1.4,1.136,1.136,0,0,1,.95-.631.516.516,0,0,0,.533-.2,4.123,4.123,0,0,1,1.032-.747,5.452,5.452,0,0,0,.868-.516l2.636-1.5a20.458,20.458,0,0,1,2.471-.988.08.08,0,0,1,.11-.06c.055.016.082.027.082.027l.17.055a.631.631,0,0,0,.434-.049c.176-.066.3-.121.379-.159l.626.39a.808.808,0,0,1-.445.8,2.221,2.221,0,0,0-.89,1.027l-.11.34a1.694,1.694,0,0,1-.664.912l.143.137c1.065-.406,1.636-.631,1.713-.67a1.38,1.38,0,0,0,.39-.483,3.794,3.794,0,0,1,.3-.511l.275-.566a1.006,1.006,0,0,0,.3-.653,2.86,2.86,0,0,1,.522-1.049,3.756,3.756,0,0,0,.566-1.038,9.479,9.479,0,0,1,.483-1.065c.055-.17.148-.423.286-.752a1.389,1.389,0,0,1,.653-.725.225.225,0,0,0,.11-.34l.11-.34a4.087,4.087,0,0,1,.384-.906c.664-1.285,1.186-2.24,1.576-2.866q.329-.733,1.159-2.158a15.542,15.542,0,0,1,1.01-1.829c.45-.73.824-1.356,1.12-1.889l1.51-2.323,1.636-2.471a3.7,3.7,0,0,0,.747-1.444q-.173-.058-.2.033a3.859,3.859,0,0,1-.588.231,3.858,3.858,0,0,0-.588.231l-1.455.752-2.185.983-.56.291a5.051,5.051,0,0,1-.758.461,6.749,6.749,0,0,1-.928.406,5.971,5.971,0,0,0-1.395,1.142,2.083,2.083,0,0,0-.544.527,2.783,2.783,0,0,1-.318.412,1.307,1.307,0,0,1-.9.318,1.385,1.385,0,0,1-.988-.269,3.459,3.459,0,0,1-.538-.362,1.482,1.482,0,0,0-.566-.275,3.7,3.7,0,0,0-.406-1.065,1.011,1.011,0,0,1,.242-1.049,8.627,8.627,0,0,1,2.065-1.774,1.576,1.576,0,0,0,.445-.373,1.577,1.577,0,0,1,.445-.373c.467-.286,1.109-.736,1.933-1.345a7.274,7.274,0,0,1,2.07-1.208,36.815,36.815,0,0,1,3.844-1.483A17.836,17.836,0,0,1,32.759,8.9c.318-.022.835-.077,1.548-.159A9.33,9.33,0,0,1,36.2,8.687c.247.016.7.038,1.384.071a7.1,7.1,0,0,1,1.867.318l.082.027a1.323,1.323,0,0,0,.45.049,1.646,1.646,0,0,1,.45.049,2.673,2.673,0,0,1,.818.214,6.542,6.542,0,0,0,.626.247l1.186.379a8.085,8.085,0,0,1,1.049.522l.313.192a.374.374,0,0,1,.28-.005,1.113,1.113,0,0,1,.357.209,1.058,1.058,0,0,0,.357.209.37.37,0,0,1,.225.165.347.347,0,0,0,.225.165,2.5,2.5,0,0,1,1.027.89l.681.5a10.777,10.777,0,0,1,1.719,2.235c.038.077.121.209.242.406a.575.575,0,0,1,.132.461,2.24,2.24,0,0,0,.181,1.043,2.768,2.768,0,0,1,.236.873,7.509,7.509,0,0,0,.038,1.043,2.02,2.02,0,0,1-.187,1.159l-.071.549Zm-3.855.637a2.92,2.92,0,0,1,.291-.467.856.856,0,0,0,.115-.807l.275-.566a6.764,6.764,0,0,0,.082-2.6,2.374,2.374,0,0,0-.522-1.148,3.837,3.837,0,0,1-.577-.983,3.722,3.722,0,0,1-.884-.752,2.231,2.231,0,0,0-.912-.664L42.237,12.6a1.458,1.458,0,0,1-.324-.154.483.483,0,0,0-.351-.066,14.21,14.21,0,0,0-2.142-.033,14.749,14.749,0,0,0-2.592.2,1.724,1.724,0,0,0-.533.06.722.722,0,0,0-.588.516l.456.615a2.512,2.512,0,0,1-.132.708A2.954,2.954,0,0,1,34.725,15.9a6.191,6.191,0,0,1-.939,1.757,9.06,9.06,0,0,0-1.049,1.818.145.145,0,0,1-.011.181.523.523,0,0,0-.1.154,3.869,3.869,0,0,0-.373.725,1.249,1.249,0,0,1-.544.67l.033.2a3.135,3.135,0,0,0-.329.736,1.52,1.52,0,0,1-.275.566A2.484,2.484,0,0,0,30.5,23.81a2.7,2.7,0,0,1-.329.736,8.96,8.96,0,0,0-.467.879,2.859,2.859,0,0,1-.664.912c.17.242.11.626-.187,1.159l-.555.851a.736.736,0,0,1-.11.2.433.433,0,0,0-.055.313.678.678,0,0,1-.445.8.921.921,0,0,0-.357.824c-.055.17-.143.39-.258.664a1.772,1.772,0,0,0-.176.692c.038.077.038.121,0,.143a.379.379,0,0,0-.055.027l-.522,1.049a3.214,3.214,0,0,1-.357.824q-.222.4-1.021,1.73a1.818,1.818,0,0,0,1.351-.412,9.554,9.554,0,0,1,2.526-1.159.507.507,0,0,0,.308-.088c.148-.077.511-.275,1.076-.593a4.588,4.588,0,0,1,1.73-.571.156.156,0,0,0,.225-.115l1.263-.719.9-.461a3.4,3.4,0,0,0,.84-.571.144.144,0,0,1,.126-.1l.1-.016c.148-.077.368-.176.659-.3a1.3,1.3,0,0,0,.626-.5,2.877,2.877,0,0,1,.785-.544,3.1,3.1,0,0,0,.785-.544l.752-.6,1.12-.857,1.312-1.17c.093-.093.187-.192.28-.286a1.461,1.461,0,0,1,.362-.258,6.228,6.228,0,0,1,.714-.615,5.9,5.9,0,0,0,.879-.84,31.894,31.894,0,0,0,2.35-2.993ZM42,25.627l.055.11q.025-.082-.016-.1L42,25.627ZM30.261,37.406l.06.11a.4.4,0,0,0,.011-.044q.016-.041.1-.016l-.06-.11a.4.4,0,0,0-.044-.011c-.027-.005-.049.016-.066.071Zm-2.416.818-.027.082.082.027a.4.4,0,0,0,.011-.044Q27.927,38.257,27.845,38.224Z" transform="translate(0)"/><path class="a" d="M85.856,41.146c-2.163,3.888-6.589,9.445-8.6,9.587a50.842,50.842,0,0,1,2.707-7.375c-.1-2.361.445-3.888-1.378-4.821-4.525-2.213-8.7,3.048-9.785,7.77-.686,2.559.3,4.475,2.85,4.722.736-.884,2.015-1.428,2.312-2.46.049.1,0,.2.148.247-.049-1.181,1.131-2.163,1.867-3.048-.2,1.131-1.625,4.673-1.082,5.211,1.032.148,1.378,1.082,2.411.933,1.966-.346,5.952-4.673,8.654-9.3l-.1-1.472ZM71.25,47.488c.933-.637,1.032-3.69,2.85-3.591-.049-.3-.346.049-.544-.1a12.475,12.475,0,0,1,4.179-3.981.813.813,0,0,1,.4.983,7.137,7.137,0,0,0-.933.346c-1.181,2.46-2.949,5.557-4.871,7.232a2.4,2.4,0,0,1-1.625.686,15.071,15.071,0,0,1,.346-1.719c.1-.1.253.093.2.143Zm3.635-1.131c-.148-.544.933-1.329,1.279-2.015,0,.736-.933,1.279-1.279,2.015Zm1.971-.686c-.4.049-.3-.346-.247-.686a1.886,1.886,0,0,1,.247.686Zm13.327-7.182c-.835.2-1.477.933-2.262.637-1.181,2.114-2.559,4.475-3.838,6.54-.544.1-.2-.148-.544-.445a60.066,60.066,0,0,0,3.1-6.441c-2.015-1.916,0-6.639,3-5.9C91.161,34.4,89,35.776,88.7,37.5c1.181.1,2.213-.835,3.295-.445,0,.148-.1.247-.1.445a1.7,1.7,0,0,1,.983.346,2.829,2.829,0,0,1,.2,2.46c-.637,1.719-1.527,3.542-2.361,5.458a35.987,35.987,0,0,0-2.163,4.376,18.293,18.293,0,0,0-.544,3.1c1.428-.1,2.114-1.966,3-2.163,2.262-2.559,6.738-6.342,9.049-9.1-1.818,4.673-5.9,8.264-8.9,12.2-.983.148-1.181,1.329-2.262,1.23-1.279-.1-2.262-1.082-3.2-1.625-1.329-1.916-.346-4.179.494-6.194,1.087-2.993,3.7-6.337,3.992-9.093ZM87.723,46.6c-1.279,1.181-.983,2.9-2.015,3.542.2-1.719,1.477-3.739,2.213-5.458.346-.346.544-.1.637-.544.247.983-1.181,1.719-.835,2.46Zm-.445-8.9a13.574,13.574,0,0,0,1.916-4.03c-.2,0-.2-.247-.4-.247-.78,1.274-2.158,2.9-1.521,4.278Zm.445,10.62c-.1-.835.983-1.378.637-2.361-.439.988-1.181,1.378-.637,2.361Zm-.983,1.823c.148-.3.637-.983.346-1.279-.2.538-.544.835-.346,1.279Zm-1.032.736c-.346,0-.148-.736.3-.637-.005.34-.2.439-.3.637Zm18.049-16.869c.049,0,.049.148.1.2-.588.884-2.114,2.163-1.625,3.1.494,1.032,1.916.346,2.559-.346,0,0-.247-.049-.148-.1.4-.637,1.669-1.131,1.768-2.163.049-.736-.637-1.181-1.378-1.625-.544,0-.736.736-1.23.933,0-.044,0-.044-.044.005Zm-7.918,15c.3-.4.544-.686.736-.933-.247.785-.494,1.576-.785,2.411a6.075,6.075,0,0,1,.247,2.015c.884.983,2.46,2.757,4.376,2.114a4.205,4.205,0,0,0,1.329-.835c.494-.346,1.329-.494,1.378-1.131.247.1.247-.148.588-.148.4-.785,1.181-.884,1.329-1.916.247-.247.884-.637.544-.884-.4.2-.785,1.131-1.378,1.082.686-.445,1.131-1.329,1.867-1.669-.1.148-.3.2-.3.544a1.548,1.548,0,0,0,.835-.835c-.3-.2-.2.4-.544.148.544-.494.785-1.329,1.477-1.625.2-.835,1.23-1.032,1.527-1.966.983-.4.835-1.768,1.818-2.015.049-.3.3-.3.3-.637.1,0,.148-.1.247,0,.148-.785.933-.983.933-1.576a9.389,9.389,0,0,1-.933.637c-.049.148,0,.346-.1.4-.1.2-.346.148-.544.346-.346.346-.588.983-.983,1.378-.247.346-.835.445-.835,1.082-3.245,3.048-5.656,7.424-10.23,8.313a6,6,0,0,1,.884-4.03c.346-.637.494-1.428.835-2.015.933-1.818,2.213-3.295,3.1-5.162.2-.445.2-.983.588-1.378a2.4,2.4,0,0,0-2.312-2.262c-.1.247-.346.3-.588.544.2.4-.2.247-.148.736-.977,1.356-2.6,2.778-5.255,9.274Zm7.029,3.245c.148-.346.544-.049.588-.445.1.049.247.049.346.1-.1.346-.494.3-.544.637-.192-.044-.242-.192-.39-.291Zm-.884.489c0-.2.2-.1.3-.2,0,.049,0,.4-.3.2Zm-.736.4c.148-.148.346-.1.494-.2.093.1-.2.346-.494.2Zm18.1-10.719a73.053,73.053,0,0,1-6.688,3.739,2.366,2.366,0,0,1-.736-3.344c1.428-2.46,6.392-4.376,7.034-6.935a4.251,4.251,0,0,0-4.179-.148c-.884.346-6.392,5.112-5.854,7.276.1,1.916,1.378,2.312,2.85,3.932-2.411,3-11.949,8.407-9.2,13.574,1.279,2.46,8.852-.3,10.867-2.9,3.492-4.772,4.327-8.116.247-10.62,1.378-.686,3.888-2.46,6.243-3.932l-.588-.642ZM111.67,53.144c-1.329,1.428-6.194,6.787-7.869,4.475-.445-.346,2.163-3.048,1.768-3.2,1.719-1.527,4.821-5.211,6.787-6.639C113.932,49.207,112.51,52.013,111.67,53.144Z" transform="translate(-27.47 -10.885)"/><path class="a" d="M169.258,60.544h-1.472l-5.26-8.149a3.546,3.546,0,0,1-.329-.642h-.044a10.6,10.6,0,0,1,.055,1.406v7.386h-1.2V50.325h1.554l5.118,8.022c.214.329.351.56.412.681h.027a10.536,10.536,0,0,1-.071-1.5v-7.2h1.2V60.544Zm10.592,0h-1.329l-1.082-2.866H173.1l-1.021,2.866h-1.329l3.921-10.224h1.241l3.937,10.224Zm-2.8-3.943-1.6-4.354a4.3,4.3,0,0,1-.154-.686h-.027a3.711,3.711,0,0,1-.165.686L173.508,56.6Zm6.5-6.276v1.027h-1v8.171h1V60.55h-3.19V59.523h1V51.352h-1V50.325Zm7,10.219h-5.3V50.325h1.2v9.137h4.107Z" transform="translate(-69.145 -18.784)"/><path class="a" d="M69.63,96.6a2.415,2.415,0,0,0,1.186.3c1.1,0,1.631-.626,1.631-1.351,0-.692-.4-1.071-1.186-1.378-.642-.253-.928-.467-.928-.906,0-.318.242-.7.879-.7a1.791,1.791,0,0,1,.884.225l.165-.494a2.08,2.08,0,0,0-1.027-.231,1.343,1.343,0,0,0-1.5,1.274c0,.664.467,1.06,1.23,1.329.626.242.879.494.879.933,0,.472-.357.8-.972.8a2.089,2.089,0,0,1-1.076-.307l-.159.505Zm5.107-4.464v4.695h.6v-2.2h2.251v2.2h.61V92.137h-.61V94.1H75.335V92.137Zm7.847-.077a2.226,2.226,0,0,0-2.163,2.465,2.144,2.144,0,0,0,2.092,2.383,2.193,2.193,0,0,0,2.163-2.471,2.13,2.13,0,0,0-2.092-2.378Zm-.027.494c1,0,1.483.977,1.483,1.911,0,1.065-.538,1.949-1.494,1.949s-1.483-.9-1.483-1.9c.005-1.038.5-1.96,1.494-1.96Zm4.365,4.278h.6V94.948a2.132,2.132,0,0,0,.483.044,1.922,1.922,0,0,0,1.422-.516,1.378,1.378,0,0,0,.357-1,1.283,1.283,0,0,0-.406-.983,1.9,1.9,0,0,0-1.307-.39,6.8,6.8,0,0,0-1.153.093v4.64Zm.6-4.2a2.5,2.5,0,0,1,.566-.049c.664,0,1.1.3,1.1.917,0,.648-.439,1-1.164,1a2.129,2.129,0,0,1-.5-.049V92.631Zm8.165,4.2c-.275-.3-.516-.566-.769-.829a3.6,3.6,0,0,0,.67-1.735h-.555a3.439,3.439,0,0,1-.45,1.373c-.3-.335-.741-.851-1.131-1.312v-.022c.741-.368,1.021-.758,1.021-1.252a.972.972,0,0,0-1.027-.994,1.135,1.135,0,0,0-1.181,1.159,1.621,1.621,0,0,0,.384.983v.022a1.538,1.538,0,0,0-.912,1.373,1.324,1.324,0,0,0,1.428,1.318,1.893,1.893,0,0,0,1.362-.538c.181.2.3.329.434.461h.725Zm-2.411-.384a.925.925,0,0,1-.955-.95,1.157,1.157,0,0,1,.6-.955c.516.6,1.038,1.17,1.312,1.477a1.265,1.265,0,0,1-.955.428Zm.132-3.97a.55.55,0,0,1,.538.6c0,.4-.3.648-.774.917a1.345,1.345,0,0,1-.351-.846.608.608,0,0,1,.588-.675ZM97.464,96.6a2.415,2.415,0,0,0,1.186.3c1.1,0,1.631-.626,1.631-1.351,0-.692-.4-1.071-1.186-1.378-.642-.253-.928-.467-.928-.906,0-.318.242-.7.879-.7a1.791,1.791,0,0,1,.884.225l.165-.494a2.08,2.08,0,0,0-1.027-.231,1.343,1.343,0,0,0-1.5,1.274c0,.664.467,1.06,1.23,1.329.626.242.879.494.879.933,0,.472-.357.8-.972.8a2.089,2.089,0,0,1-1.076-.307l-.159.505Zm8.231-.406a2.352,2.352,0,0,1-.983.2,1.7,1.7,0,0,1-1.79-1.889,1.739,1.739,0,0,1,1.818-1.938,2.113,2.113,0,0,1,.939.2l.143-.494a2.5,2.5,0,0,0-1.1-.209,2.326,2.326,0,0,0-2.433,2.465,2.188,2.188,0,0,0,2.3,2.378,2.893,2.893,0,0,0,1.23-.225l-.121-.483Zm2.345-4.058v4.695h.6v-2.2h2.251v2.2h.61V92.137h-.61V94.1h-2.251V92.137Zm7.847-.077a2.226,2.226,0,0,0-2.163,2.465,2.144,2.144,0,0,0,2.092,2.383,2.193,2.193,0,0,0,2.163-2.471,2.13,2.13,0,0,0-2.092-2.378Zm-.027.494c1,0,1.483.977,1.483,1.911,0,1.065-.538,1.949-1.494,1.949s-1.483-.9-1.483-1.9c.005-1.038.5-1.96,1.494-1.96Zm6.249-.494a2.226,2.226,0,0,0-2.163,2.465,2.144,2.144,0,0,0,2.092,2.383,2.193,2.193,0,0,0,2.163-2.471,2.13,2.13,0,0,0-2.092-2.378Zm-.027.494c1,0,1.483.977,1.483,1.911,0,1.065-.538,1.949-1.494,1.949s-1.483-.9-1.483-1.9c.005-1.038.5-1.96,1.494-1.96Zm4.365,4.278h2.592v-.511H127.05V92.137h-.6v4.695Z" transform="translate(-27.942 -37.605)"/><rect width="10.581" height="0.824" transform="translate(28.696 56.817)"/><rect width="10.581" height="0.824" transform="translate(103.314 56.498)"/></g></svg>